<svg width="195" height="30" viewBox="0 0 195 30" fill="none" xmlns="http://www.w3.org/2000/svg">
<g filter="url(#filter0_d_6535_6934)">
<path d="M4.19666 13.4636C3.93445 13.2076 3.93445 12.7924 4.19666 12.5364L12.7426 4.19202C13.0048 3.93599 13.43 3.93599 13.6922 4.19202L22.2381 12.5364C22.5003 12.7924 22.5003 13.2076 22.2381 13.4636L13.6922 21.808C13.43 22.064 13.0048 22.064 12.7426 21.808L4.19666 13.4636Z" fill="#09814A"/>
<path d="M13.7619 13.4636C13.4997 13.2076 13.4997 12.7924 13.7619 12.5364L22.3078 4.19202C22.57 3.93599 22.9952 3.93599 23.2574 4.19202L31.8033 12.5364C32.0656 12.7924 32.0656 13.2076 31.8033 13.4636L23.2574 21.808C22.9952 22.064 22.57 22.064 22.3078 21.808L13.7619 13.4636Z" fill="#98C43D"/>
</g>
<path d="M37.38 6.72H40.52V21H37.38V6.72ZM42.9784 10.66H45.6784V12.1H45.7384C46.0984 11.5 46.5651 11.0667 47.1384 10.8C47.7118 10.52 48.2984 10.38 48.8984 10.38C49.6584 10.38 50.2784 10.4867 50.7584 10.7C51.2518 10.9 51.6384 11.1867 51.9184 11.56C52.1984 11.92 52.3918 12.3667 52.4984 12.9C52.6184 13.42 52.6784 14 52.6784 14.64V21H49.8384V15.16C49.8384 14.3067 49.7051 13.6733 49.4384 13.26C49.1718 12.8333 48.6984 12.62 48.0184 12.62C47.2451 12.62 46.6851 12.8533 46.3384 13.32C45.9918 13.7733 45.8184 14.5267 45.8184 15.58V21H42.9784V10.66ZM61.8739 14.3C61.6872 13.1133 60.9872 12.52 59.7739 12.52C59.3206 12.52 58.9406 12.6267 58.6339 12.84C58.3272 13.04 58.0739 13.3067 57.8739 13.64C57.6872 13.96 57.5539 14.32 57.4739 14.72C57.3939 15.1067 57.3539 15.4933 57.3539 15.88C57.3539 16.2533 57.3939 16.6333 57.4739 17.02C57.5539 17.4067 57.6806 17.76 57.8539 18.08C58.0406 18.3867 58.2872 18.64 58.5939 18.84C58.9006 19.04 59.2739 19.14 59.7139 19.14C60.3939 19.14 60.9139 18.9533 61.2739 18.58C61.6472 18.1933 61.8806 17.68 61.9739 17.04H64.7139C64.5272 18.4133 63.9939 19.46 63.1139 20.18C62.2339 20.9 61.1072 21.26 59.7339 21.26C58.9606 21.26 58.2472 21.1333 57.5939 20.88C56.9539 20.6133 56.4072 20.2467 55.9539 19.78C55.5006 19.3133 55.1472 18.76 54.8939 18.12C54.6406 17.4667 54.5139 16.7533 54.5139 15.98C54.5139 15.18 54.6272 14.44 54.8539 13.76C55.0939 13.0667 55.4406 12.4733 55.8939 11.98C56.3472 11.4733 56.9006 11.08 57.5539 10.8C58.2072 10.52 58.9539 10.38 59.7939 10.38C60.4072 10.38 60.9939 10.46 61.5539 10.62C62.1272 10.78 62.6339 11.0267 63.0739 11.36C63.5272 11.68 63.8939 12.0867 64.1739 12.58C64.4539 13.06 64.6139 13.6333 64.6539 14.3H61.8739ZM68.8383 15.84C68.8383 16.2533 68.8783 16.66 68.9583 17.06C69.0383 17.4467 69.1716 17.8 69.3583 18.12C69.5583 18.4267 69.8183 18.6733 70.1383 18.86C70.4583 19.0467 70.8583 19.14 71.3383 19.14C71.8183 19.14 72.2183 19.0467 72.5383 18.86C72.8716 18.6733 73.1316 18.4267 73.3183 18.12C73.5183 17.8 73.6583 17.4467 73.7383 17.06C73.8183 16.66 73.8583 16.2533 73.8583 15.84C73.8583 15.4267 73.8183 15.02 73.7383 14.62C73.6583 14.22 73.5183 13.8667 73.3183 13.56C73.1316 13.2533 72.8716 13.0067 72.5383 12.82C72.2183 12.62 71.8183 12.52 71.3383 12.52C70.8583 12.52 70.4583 12.62 70.1383 12.82C69.8183 13.0067 69.5583 13.2533 69.3583 13.56C69.1716 13.8667 69.0383 14.22 68.9583 14.62C68.8783 15.02 68.8383 15.4267 68.8383 15.84ZM65.9983 15.84C65.9983 15.0133 66.1249 14.2667 66.3783 13.6C66.6316 12.92 66.9916 12.3467 67.4583 11.88C67.9249 11.4 68.4849 11.0333 69.1383 10.78C69.7916 10.5133 70.5249 10.38 71.3383 10.38C72.1516 10.38 72.8849 10.5133 73.5383 10.78C74.2049 11.0333 74.7716 11.4 75.2383 11.88C75.7049 12.3467 76.0649 12.92 76.3183 13.6C76.5716 14.2667 76.6983 15.0133 76.6983 15.84C76.6983 16.6667 76.5716 17.4133 76.3183 18.08C76.0649 18.7467 75.7049 19.32 75.2383 19.8C74.7716 20.2667 74.2049 20.6267 73.5383 20.88C72.8849 21.1333 72.1516 21.26 71.3383 21.26C70.5249 21.26 69.7916 21.1333 69.1383 20.88C68.4849 20.6267 67.9249 20.2667 67.4583 19.8C66.9916 19.32 66.6316 18.7467 66.3783 18.08C66.1249 17.4133 65.9983 16.6667 65.9983 15.84ZM78.6248 10.66H81.3048V12.06H81.3448C81.7182 11.5267 82.1648 11.1133 82.6848 10.82C83.2182 10.5267 83.8248 10.38 84.5048 10.38C85.1582 10.38 85.7515 10.5067 86.2848 10.76C86.8315 11.0133 87.2448 11.46 87.5248 12.1C87.8315 11.6467 88.2448 11.2467 88.7648 10.9C89.2982 10.5533 89.9248 10.38 90.6448 10.38C91.1915 10.38 91.6982 10.4467 92.1648 10.58C92.6315 10.7133 93.0315 10.9267 93.3648 11.22C93.6982 11.5133 93.9582 11.9 94.1448 12.38C94.3315 12.8467 94.4248 13.4133 94.4248 14.08V21H91.5848V15.14C91.5848 14.7933 91.5715 14.4667 91.5448 14.16C91.5182 13.8533 91.4448 13.5867 91.3248 13.36C91.2048 13.1333 91.0248 12.9533 90.7848 12.82C90.5582 12.6867 90.2448 12.62 89.8448 12.62C89.4448 12.62 89.1182 12.7 88.8648 12.86C88.6248 13.0067 88.4315 13.2067 88.2848 13.46C88.1515 13.7 88.0582 13.98 88.0048 14.3C87.9648 14.6067 87.9448 14.92 87.9448 15.24V21H85.1048V15.2C85.1048 14.8933 85.0982 14.5933 85.0848 14.3C85.0715 13.9933 85.0115 13.7133 84.9048 13.46C84.8115 13.2067 84.6448 13.0067 84.4048 12.86C84.1782 12.7 83.8382 12.62 83.3848 12.62C83.2515 12.62 83.0715 12.6533 82.8448 12.72C82.6315 12.7733 82.4182 12.8867 82.2048 13.06C82.0048 13.22 81.8315 13.46 81.6848 13.78C81.5382 14.0867 81.4648 14.4933 81.4648 15V21H78.6248V10.66ZM103.63 14.72C103.497 14 103.257 13.4533 102.91 13.08C102.577 12.7067 102.063 12.52 101.37 12.52C100.917 12.52 100.537 12.6 100.23 12.76C99.9365 12.9067 99.6965 13.0933 99.5098 13.32C99.3365 13.5467 99.2098 13.7867 99.1298 14.04C99.0632 14.2933 99.0232 14.52 99.0098 14.72H103.63ZM99.0098 16.52C99.0498 17.44 99.2832 18.1067 99.7098 18.52C100.137 18.9333 100.75 19.14 101.55 19.14C102.123 19.14 102.617 19 103.03 18.72C103.443 18.4267 103.697 18.12 103.79 17.8H106.29C105.89 19.04 105.277 19.9267 104.45 20.46C103.623 20.9933 102.623 21.26 101.45 21.26C100.637 21.26 99.9032 21.1333 99.2498 20.88C98.5965 20.6133 98.0432 20.24 97.5898 19.76C97.1365 19.28 96.7832 18.7067 96.5298 18.04C96.2898 17.3733 96.1698 16.64 96.1698 15.84C96.1698 15.0667 96.2965 14.3467 96.5498 13.68C96.8032 13.0133 97.1632 12.44 97.6298 11.96C98.0965 11.4667 98.6498 11.08 99.2898 10.8C99.9432 10.52 100.663 10.38 101.45 10.38C102.33 10.38 103.097 10.5533 103.75 10.9C104.403 11.2333 104.937 11.6867 105.35 12.26C105.777 12.8333 106.083 13.4867 106.27 14.22C106.457 14.9533 106.523 15.72 106.47 16.52H99.0098ZM117.621 15.48H121.321L119.521 10.24H119.481L117.621 15.48ZM117.921 6.72H121.141L126.481 21H123.221L122.141 17.82H116.801L115.681 21H112.521L117.921 6.72ZM127.412 10.66H130.112V12.1H130.172C130.532 11.5 130.999 11.0667 131.572 10.8C132.145 10.52 132.732 10.38 133.332 10.38C134.092 10.38 134.712 10.4867 135.192 10.7C135.685 10.9 136.072 11.1867 136.352 11.56C136.632 11.92 136.825 12.3667 136.932 12.9C137.052 13.42 137.112 14 137.112 14.64V21H134.272V15.16C134.272 14.3067 134.139 13.6733 133.872 13.26C133.605 12.8333 133.132 12.62 132.452 12.62C131.679 12.62 131.119 12.8533 130.772 13.32C130.425 13.7733 130.252 14.5267 130.252 15.58V21H127.412V10.66ZM139.148 13.84C139.188 13.1733 139.354 12.62 139.648 12.18C139.941 11.74 140.314 11.3867 140.768 11.12C141.221 10.8533 141.728 10.6667 142.288 10.56C142.861 10.44 143.434 10.38 144.008 10.38C144.528 10.38 145.054 10.42 145.588 10.5C146.121 10.5667 146.608 10.7067 147.048 10.92C147.488 11.1333 147.848 11.4333 148.128 11.82C148.408 12.1933 148.548 12.6933 148.548 13.32V18.7C148.548 19.1667 148.574 19.6133 148.628 20.04C148.681 20.4667 148.774 20.7867 148.908 21H146.028C145.974 20.84 145.928 20.68 145.888 20.52C145.861 20.3467 145.841 20.1733 145.828 20C145.374 20.4667 144.841 20.7933 144.228 20.98C143.614 21.1667 142.988 21.26 142.348 21.26C141.854 21.26 141.394 21.2 140.968 21.08C140.541 20.96 140.168 20.7733 139.848 20.52C139.528 20.2667 139.274 19.9467 139.088 19.56C138.914 19.1733 138.828 18.7133 138.828 18.18C138.828 17.5933 138.928 17.1133 139.128 16.74C139.341 16.3533 139.608 16.0467 139.928 15.82C140.261 15.5933 140.634 15.4267 141.048 15.32C141.474 15.2 141.901 15.1067 142.328 15.04C142.754 14.9733 143.174 14.92 143.588 14.88C144.001 14.84 144.368 14.78 144.688 14.7C145.008 14.62 145.261 14.5067 145.448 14.36C145.634 14.2 145.721 13.9733 145.708 13.68C145.708 13.3733 145.654 13.1333 145.548 12.96C145.454 12.7733 145.321 12.6333 145.148 12.54C144.988 12.4333 144.794 12.3667 144.568 12.34C144.354 12.3 144.121 12.28 143.868 12.28C143.308 12.28 142.868 12.4 142.548 12.64C142.228 12.88 142.041 13.28 141.988 13.84H139.148ZM145.708 15.94C145.588 16.0467 145.434 16.1333 145.248 16.2C145.074 16.2533 144.881 16.3 144.668 16.34C144.468 16.38 144.254 16.4133 144.028 16.44C143.801 16.4667 143.574 16.5 143.348 16.54C143.134 16.58 142.921 16.6333 142.708 16.7C142.508 16.7667 142.328 16.86 142.168 16.98C142.021 17.0867 141.901 17.2267 141.808 17.4C141.714 17.5733 141.668 17.7933 141.668 18.06C141.668 18.3133 141.714 18.5267 141.808 18.7C141.901 18.8733 142.028 19.0133 142.188 19.12C142.348 19.2133 142.534 19.28 142.748 19.32C142.961 19.36 143.181 19.38 143.408 19.38C143.968 19.38 144.401 19.2867 144.708 19.1C145.014 18.9133 145.241 18.6933 145.388 18.44C145.534 18.1733 145.621 17.9067 145.648 17.64C145.688 17.3733 145.708 17.16 145.708 17V15.94ZM150.832 6.72H153.672V21H150.832V6.72ZM161.008 22.28C160.701 23.12 160.275 23.72 159.728 24.08C159.181 24.44 158.421 24.62 157.448 24.62C157.155 24.62 156.861 24.6067 156.568 24.58C156.288 24.5667 156.001 24.5467 155.708 24.52V22.18C155.975 22.2067 156.248 22.2333 156.528 22.26C156.808 22.2867 157.088 22.2933 157.368 22.28C157.741 22.24 158.015 22.0933 158.188 21.84C158.375 21.5867 158.468 21.3067 158.468 21C158.468 20.7733 158.428 20.56 158.348 20.36L154.728 10.66H157.748L160.088 17.74H160.128L162.388 10.66H165.328L161.008 22.28ZM165.639 18.86L171.019 12.8H166.039V10.66H174.759V12.8L169.379 18.86H175.139V21H165.639V18.86ZM183.61 14.72C183.477 14 183.237 13.4533 182.89 13.08C182.557 12.7067 182.044 12.52 181.35 12.52C180.897 12.52 180.517 12.6 180.21 12.76C179.917 12.9067 179.677 13.0933 179.49 13.32C179.317 13.5467 179.19 13.7867 179.11 14.04C179.044 14.2933 179.004 14.52 178.99 14.72H183.61ZM178.99 16.52C179.03 17.44 179.264 18.1067 179.69 18.52C180.117 18.9333 180.73 19.14 181.53 19.14C182.104 19.14 182.597 19 183.01 18.72C183.424 18.4267 183.677 18.12 183.77 17.8H186.27C185.87 19.04 185.257 19.9267 184.43 20.46C183.604 20.9933 182.604 21.26 181.43 21.26C180.617 21.26 179.884 21.1333 179.23 20.88C178.577 20.6133 178.024 20.24 177.57 19.76C177.117 19.28 176.764 18.7067 176.51 18.04C176.27 17.3733 176.15 16.64 176.15 15.84C176.15 15.0667 176.277 14.3467 176.53 13.68C176.784 13.0133 177.144 12.44 177.61 11.96C178.077 11.4667 178.63 11.08 179.27 10.8C179.924 10.52 180.644 10.38 181.43 10.38C182.31 10.38 183.077 10.5533 183.73 10.9C184.384 11.2333 184.917 11.6867 185.33 12.26C185.757 12.8333 186.064 13.4867 186.25 14.22C186.437 14.9533 186.504 15.72 186.45 16.52H178.99ZM188.135 10.66H190.835V12.58H190.875C191.008 12.26 191.188 11.9667 191.415 11.7C191.641 11.42 191.901 11.1867 192.195 11C192.488 10.8 192.801 10.6467 193.135 10.54C193.468 10.4333 193.815 10.38 194.175 10.38C194.361 10.38 194.568 10.4133 194.795 10.48V13.12C194.661 13.0933 194.501 13.0733 194.315 13.06C194.128 13.0333 193.948 13.02 193.775 13.02C193.255 13.02 192.815 13.1067 192.455 13.28C192.095 13.4533 191.801 13.6933 191.575 14C191.361 14.2933 191.208 14.64 191.115 15.04C191.021 15.44 190.975 15.8733 190.975 16.34V21H188.135V10.66Z" fill="white"/>
<defs>
<filter id="filter0_d_6535_6934" x="0" y="4" width="36" height="26" filterUnits="userSpaceOnUse" color-interpolation-filters="sRGB">
<feFlood flood-opacity="0" result="BackgroundImageFix"/>
<feColorMatrix in="SourceAlpha" type="matrix" values="0 0 0 0 0 0 0 0 0 0 0 0 0 0 0 0 0 0 127 0" result="hardAlpha"/>
<feOffset dy="4"/>
<feGaussianBlur stdDeviation="2"/>
<feComposite in2="hardAlpha" operator="out"/>
<feColorMatrix type="matrix" values="0 0 0 0 0 0 0 0 0 0 0 0 0 0 0 0 0 0 0.25 0"/>
<feBlend mode="normal" in2="BackgroundImageFix" result="effect1_dropShadow_6535_6934"/>
<feBlend mode="normal" in="SourceGraphic" in2="effect1_dropShadow_6535_6934" result="shape"/>
</filter>
</defs>
</svg>
