<svg width="18" height="19" viewBox="0 0 18 19" fill="none" xmlns="http://www.w3.org/2000/svg">
<path d="M8.87598 12C8.35098 12 7.90723 11.8188 7.54473 11.4563C7.18223 11.0938 7.00098 10.65 7.00098 10.125C7.00098 9.6 7.18223 9.15625 7.54473 8.79375C7.90723 8.43125 8.35098 8.25 8.87598 8.25C9.40098 8.25 9.84473 8.43125 10.2072 8.79375C10.5697 9.15625 10.751 9.6 10.751 10.125C10.751 10.65 10.5697 11.0938 10.2072 11.4563C9.84473 11.8188 9.40098 12 8.87598 12ZM1.75098 15C1.33848 15 0.985352 14.8531 0.691602 14.5594C0.397852 14.2656 0.250977 13.9125 0.250977 13.5V3C0.250977 2.5875 0.397852 2.23438 0.691602 1.94063C0.985352 1.64688 1.33848 1.5 1.75098 1.5H2.50098V0H4.00098V1.5H10.001V0H11.501V1.5H12.251C12.6635 1.5 13.0166 1.64688 13.3104 1.94063C13.6041 2.23438 13.751 2.5875 13.751 3V13.5C13.751 13.9125 13.6041 14.2656 13.3104 14.5594C13.0166 14.8531 12.6635 15 12.251 15H1.75098ZM1.75098 13.5H12.251V6H1.75098V13.5ZM1.75098 4.5H12.251V3H1.75098V4.5Z" fill="#FAFFF0"/>
</svg>
