<svg width="16" height="16" viewBox="0 0 16 16" fill="none" xmlns="http://www.w3.org/2000/svg">
<g clip-path="url(#clip0_2006_2969)">
<path d="M1.77778 16C1.28889 16 0.870368 15.8259 0.522222 15.4778C0.174074 15.1296 0 14.7111 0 14.2222V1.77778C0 1.28889 0.174074 0.870368 0.522222 0.522222C0.870368 0.174074 1.28889 0 1.77778 0H14.2222C14.7111 0 15.1296 0.174074 15.4778 0.522222C15.8259 0.870368 16 1.28889 16 1.77778V14.2222C16 14.7111 15.8259 15.1296 15.4778 15.4778C15.1296 15.8259 14.7111 16 14.2222 16H1.77778Z" fill="#1C1B1F"/>
<rect x="4" y="7" width="8" height="2" fill="white"/>
<rect width="2" height="2" fill="#1C1B1F"/>
<rect y="14" width="2" height="2" fill="#1C1B1F"/>
<rect x="14" y="14" width="2" height="2" fill="#1C1B1F"/>
<rect x="14" width="2" height="2" fill="#1C1B1F"/>
</g>
<defs>
<clipPath id="clip0_2006_2969">
<rect width="16" height="16" fill="white"/>
</clipPath>
</defs>
</svg>